<?xml version="1.0" encoding="utf-8"?>
<!-- Svg Vector Icons : http://www.onlinewebfonts.com/icon -->
<!DOCTYPE svg PUBLIC "-//W3C//DTD SVG 1.1//EN" "http://www.w3.org/Graphics/SVG/1.1/DTD/svg11.dtd">
<svg version="1.1" xmlns="http://www.w3.org/2000/svg" xmlns:xlink="http://www.w3.org/1999/xlink" x="0px" y="0px" viewBox="0 0 256 256" enable-background="new 0 0 256 256" xml:space="preserve">
<metadata> Svg Vector Icons : http://www.onlinewebfonts.com/icon </metadata>
<g> <path fill="#262c5c" d="M10,128c0,65.2,52.8,118,118,118c65.2,0,118-52.8,118-118c0-65.2-52.8-118-118-118C62.8,10,10,62.8,10,128z "/> <path fill="#eec047" d="M187.4,160.3h-12.3v-29.9h12.3V160.3z M192,130.4h-4.5v29.9H207v-29.9H192z"/> <path fill="#eec047" d="M187.9,190.3h-12.8v-29.9h12.8V190.3z"/> <path fill="#6f4a9b" d="M204.2,190.3h-16.8v-29.9H207v27.2C207,189,205.8,190.2,204.2,190.3z"/> <path fill="#e83f60" d="M202.8,130.4h-27.7v-29.9h27.7V130.4z"/> <path fill="#ffffff" d="M207,130.4h-15v-29.9h15V130.4z"/> <path fill="#eec047" d="M90.3,169.7l-4.7,20.5H49L78.3,69.8h51.7l27.8,120.3h-36.3l-4.7-20.5L90.3,169.7z M96.8,141.4h13.4 l-6.6-29.4L96.8,141.4z"/> <path fill="#6f4a9b" d="M78.3,69.8L73,91.5h61.9l-5-21.7H78.3z"/> <path fill="#e83f60" d="M60.8,141.4h49.3l6.5,28.2H54L60.8,141.4z"/> <path fill="#ffffff" d="M103.6,112h36.1l6.8,29.4h-36.2L103.6,112z"/> <path fill="#e83f60" d="M175.6,65.7h30.9v11h-30.9V65.7z"/> <path fill="#e83f60" d="M175.6,76.4h30.9v11h-30.9V76.4z"/></g>
</svg>